<svg width="50" height="50" viewBox="0 0 50 50" fill="none" xmlns="http://www.w3.org/2000/svg">
<path d="M0 45.3125C0 47.9004 2.39955 50 5.35714 50H44.6429C47.6004 50 50 47.9004 50 45.3125V18.75H0V45.3125ZM35.7143 26.1719C35.7143 25.5273 36.317 25 37.0536 25H41.5179C42.2545 25 42.8571 25.5273 42.8571 26.1719V30.0781C42.8571 30.7227 42.2545 31.25 41.5179 31.25H37.0536C36.317 31.25 35.7143 30.7227 35.7143 30.0781V26.1719ZM35.7143 38.6719C35.7143 38.0273 36.317 37.5 37.0536 37.5H41.5179C42.2545 37.5 42.8571 38.0273 42.8571 38.6719V42.5781C42.8571 43.2227 42.2545 43.75 41.5179 43.75H37.0536C36.317 43.75 35.7143 43.2227 35.7143 42.5781V38.6719ZM21.4286 26.1719C21.4286 25.5273 22.0312 25 22.7679 25H27.2321C27.9688 25 28.5714 25.5273 28.5714 26.1719V30.0781C28.5714 30.7227 27.9688 31.25 27.2321 31.25H22.7679C22.0312 31.25 21.4286 30.7227 21.4286 30.0781V26.1719ZM21.4286 38.6719C21.4286 38.0273 22.0312 37.5 22.7679 37.5H27.2321C27.9688 37.5 28.5714 38.0273 28.5714 38.6719V42.5781C28.5714 43.2227 27.9688 43.75 27.2321 43.75H22.7679C22.0312 43.75 21.4286 43.2227 21.4286 42.5781V38.6719ZM7.14286 26.1719C7.14286 25.5273 7.74554 25 8.48214 25H12.9464C13.683 25 14.2857 25.5273 14.2857 26.1719V30.0781C14.2857 30.7227 13.683 31.25 12.9464 31.25H8.48214C7.74554 31.25 7.14286 30.7227 7.14286 30.0781V26.1719ZM7.14286 38.6719C7.14286 38.0273 7.74554 37.5 8.48214 37.5H12.9464C13.683 37.5 14.2857 38.0273 14.2857 38.6719V42.5781C14.2857 43.2227 13.683 43.75 12.9464 43.75H8.48214C7.74554 43.75 7.14286 43.2227 7.14286 42.5781V38.6719ZM44.6429 6.25H39.2857V1.5625C39.2857 0.703125 38.4821 0 37.5 0H33.9286C32.9464 0 32.1429 0.703125 32.1429 1.5625V6.25H17.8571V1.5625C17.8571 0.703125 17.0536 0 16.0714 0H12.5C11.5179 0 10.7143 0.703125 10.7143 1.5625V6.25H5.35714C2.39955 6.25 0 8.34961 0 10.9375V15.625H50V10.9375C50 8.34961 47.6004 6.25 44.6429 6.25Z" fill="#00C4BA"/>
</svg>
