<svg width="50" height="50" viewBox="0 0 50 50" fill="none" xmlns="http://www.w3.org/2000/svg">
<path d="M25.0004 11.2312L6.03114 30.0502C5.89051 30.1928 5.71083 30.2592 5.55632 30.3773V48.4375C5.55632 48.8519 5.70264 49.2493 5.96311 49.5424C6.22357 49.8354 6.57683 50 6.94518 50H43.0556C43.424 50 43.7772 49.8354 44.0377 49.5424C44.2982 49.2493 44.4445 48.8519 44.4445 48.4375V30.3812C44.2969 30.268 44.1216 30.2035 43.9879 30.0687L25.0004 11.2312ZM33.3336 36.719C33.3336 36.9262 33.2604 37.1249 33.1302 37.2714C33 37.4179 32.8233 37.5002 32.6392 37.5002H27.7781V42.9689C27.7781 43.1761 27.705 43.3748 27.5747 43.5213C27.4445 43.6678 27.2679 43.7501 27.0837 43.7501H22.9171C22.7329 43.7501 22.5563 43.6678 22.4261 43.5213C22.2958 43.3748 22.2227 43.1761 22.2227 42.9689V37.5002H17.3617C17.1775 37.5002 17.0009 37.4179 16.8706 37.2714C16.7404 37.1249 16.6672 36.9262 16.6672 36.719V32.0316C16.6672 31.8244 16.7404 31.6257 16.8706 31.4792C17.0009 31.3327 17.1775 31.2504 17.3617 31.2504H22.2227V25.7817C22.2227 25.5745 22.2958 25.3758 22.4261 25.2293C22.5563 25.0828 22.7329 25.0005 22.9171 25.0005H27.0837C27.2679 25.0005 27.4445 25.0828 27.5747 25.2293C27.705 25.3758 27.7781 25.5745 27.7781 25.7817V31.2504H32.6392C32.8233 31.2504 33 31.3327 33.1302 31.4792C33.2604 31.6257 33.3336 31.8244 33.3336 32.0316V36.719ZM49.539 23.0747L27.3224 1.00486C26.6865 0.358095 25.8598 0 25.0026 0C24.1453 0 23.3186 0.358095 22.6827 1.00486L0.460924 23.0747C0.325181 23.2119 0.214783 23.3777 0.136037 23.5629C0.0572912 23.748 0.0117402 23.9488 0.0019864 24.1538C-0.0077674 24.3587 0.0184671 24.5638 0.0791913 24.7574C0.139915 24.9509 0.233939 25.1291 0.355892 25.2817L2.21436 27.6079C2.33626 27.7606 2.4837 27.8848 2.64827 27.9734C2.81284 28.0619 2.99131 28.1132 3.17349 28.1242C3.35567 28.1351 3.53798 28.1056 3.71002 28.0373C3.88206 27.969 4.04044 27.8632 4.17613 27.726L24.082 7.9725C24.3358 7.72067 24.6625 7.58171 25.0008 7.58171C25.3392 7.58171 25.6659 7.72067 25.9197 7.9725L45.8255 27.725C45.9612 27.8622 46.1196 27.968 46.2917 28.0363C46.4637 28.1046 46.646 28.1342 46.8282 28.1232C47.0104 28.1122 47.1888 28.061 47.3534 27.9724C47.518 27.8838 47.6654 27.7596 47.7873 27.6069L49.6449 25.2808C49.8908 24.9724 50.0178 24.5668 49.998 24.1531C49.9781 23.7394 49.813 23.3515 49.539 23.0747Z" fill="#00C4BA"/>
</svg>
